<?xml version="1.0" encoding="UTF-8"?>
<svg width="1730px" height="1119px" viewBox="0 0 1730 1119" version="1.1" xmlns="http://www.w3.org/2000/svg" xmlns:xlink="http://www.w3.org/1999/xlink">
    <!-- Generator: Sketch 59.1 (86144) - https://sketch.com -->
    <title>Group 34</title>
    <desc>Created with Sketch.</desc>
    <defs>
        <polygon id="path-1" points="0.217815261 0.420316601 125.135534 0.420316601 125.135534 126.825478 0.217815261 126.825478"></polygon>
    </defs>
    <g id="Style-Guide-" stroke="none" stroke-width="1" fill="none" fill-rule="evenodd">
        <g id="vector" transform="translate(-2056.000000, -793.000000)">
            <g id="Group-34" transform="translate(2056.000000, 793.000000)">
                <path d="M670.965995,0 C673.738096,0.693106487 676.49227,1.89340384 679.283926,1.99125417 C689.819864,2.36145457 695.17991,10.450415 692.784268,21.052498 C690.616782,30.6467226 690.57441,38.5057347 700.577439,43.9005495 C702.629217,45.007889 704.544101,49.5889152 703.858002,51.7024823 C703.088789,54.0671985 699.10746,57.1739464 696.845452,56.9309514 C690.121356,56.2117515 682.681827,55.4224255 677.162072,52.0074491 C671.058888,48.2304265 667.522463,48.9496264 664.753622,54.425983 C658.552657,66.6947833 653.243131,79.4169567 646.936235,91.6270467 C632.459711,119.661166 617.706139,147.553401 602.805895,175.365726 C600.284767,180.070696 597.123171,184.834376 593.140212,188.272184 C581.31845,198.474712 579.017329,213.281097 573.155339,226.443597 C567.720327,238.647164 563.144161,251.118188 553.83049,261.697439 C547.991316,268.32843 546.13999,278.65164 543.084323,287.521772 C536.971361,305.273452 531.277229,323.168646 525.346791,340.983929 C524.931221,342.234782 524.285864,343.810173 523.265679,344.394013 C508.807081,352.67052 510.229799,368.447254 506.783007,381.334142 C501.240436,402.060473 497.589934,423.336396 493.957357,444.519361 C491.054882,461.440944 488.424564,478.510934 487.337562,495.620063 C485.184743,529.500739 484.272117,563.459695 482.629391,597.37625 C482.279008,604.612282 481.995442,612.109247 479.898033,618.9392 C477.049337,628.217042 472.74044,637.092067 468.446211,645.841517 C467.566179,647.63544 463.964567,649.072209 461.673224,649 C456.318067,648.82269 450.85698,648.136107 445.700645,646.705862 C440.404157,645.236476 437.263747,641.904672 437.524497,635.378055 C438.468087,611.815697 439.876138,588.204412 439.181891,564.668147 C438.425715,539.008529 435.57539,513.409253 433.538279,487.790406 C432.467573,474.327832 432.933664,460.413515 429.49991,447.560875 C426.214458,435.26272 424.723292,423.310302 425.067157,410.814815 C425.109529,409.283458 423.698218,407.107919 422.324391,406.241943 C414.184096,401.109694 413.067759,392.914729 413.960828,384.819245 C415.201021,373.579504 406.187213,369.662229 400.326853,363.505813 C399.821649,362.974159 394.986363,364.797437 394.463233,366.31901 C383.58832,397.954021 370.954973,429.070425 367.143131,462.773339 C365.89479,473.810856 366.903567,485.654007 364.261842,495.646157 C359.385813,514.097467 358.934389,532.566716 357.638787,551.109353 C356.802757,563.071556 358.445483,575.262076 356.970615,587.100335 C356.256811,592.837625 351.716498,598.801603 347.36034,603.084186 C345.142334,605.262986 338.771881,605.468472 335.536949,603.924068 C325.744149,599.256607 319.763192,591.449782 316.751527,580.332354 C306.691459,543.178584 295.523202,506.328151 285.096454,469.272232 C281.520917,456.569628 279.583217,443.382666 275.629592,430.817053 C271.283213,417.00711 264.119101,404.001171 260.587566,390.034667 C253.519606,362.070675 248.245933,333.654939 241.922741,305.496877 C238.26409,289.198274 234.326762,272.948596 229.94127,256.831016 C221.831939,227.025807 213.386892,197.308662 204.848953,167.620873 C203.695133,163.604117 201.208228,159.970608 199,155.466231 C203.735875,155.076461 208.098552,154.719307 214.123511,154.225163 C209.653275,141.842204 205.610017,130.638342 201.568389,119.447526 C222.18884,112.219648 236.137346,119.76717 242.437723,139.557399 C244.588912,146.313964 250.882769,151.635391 254.383341,158.101667 C261.637085,171.500638 268.385626,185.178483 275.150464,198.836758 C280.002047,208.629945 284.074639,218.837365 289.393943,228.358202 C292.676136,234.235745 293.875587,238.624332 288.264569,243.683194 C286.827183,244.979711 286.282867,249.930938 287.42039,251.021969 C299.137852,262.273126 302.297818,277.141483 306.060769,291.964177 C309.976911,307.38865 314.377071,322.70875 319.222135,337.865765 C320.208097,340.952943 323.954751,345.051241 326.705666,345.274666 C332.036377,345.706838 336.623951,342.304908 337.557763,336.376809 C338.634987,329.535441 340.719359,323.413272 346.804616,319.486212 C349.617459,317.671088 352.842613,316.475684 355.590268,314.579018 C358.204289,312.77368 361.80916,310.82972 362.591411,308.230163 C364.985424,300.258623 366.173467,291.93156 367.943309,283.767581 C369.108536,278.395598 368.947197,272.123392 376.20746,270.489291 C376.662143,270.388179 377.266758,269.879358 377.372687,269.453709 C380.695623,256.110186 392.532052,259.432204 401.252516,258.217229 C405.181695,257.672529 409.767639,262.253555 414.135205,264.34266 C416.952937,265.691364 420.018381,267.950075 422.792111,267.708711 C434.752397,266.669867 439.507828,269.931544 441.654128,281.882331 C443.780872,293.732006 444.202961,291.672256 456.267547,294.142977 C468.992156,296.747427 471.100973,290.807912 474.441835,281.486037 C479.612838,267.051483 485.88062,252.939835 492.642199,239.162509 C506.631446,210.665232 521.121009,182.412581 535.675758,154.19907 C541.391077,143.120782 548.269993,132.856282 558.980307,125.661022 C561.493287,123.973103 563.243572,120.921804 564.909114,118.227658 C576.077371,100.166119 586.92132,81.8990933 598.418773,64.0528244 C600.387437,60.9966325 605.371025,57.4332498 608.284909,57.946964 C614.29846,59.0070092 616.821218,55.6637897 619.528131,52.2276123 C626.635203,43.207443 633.004027,33.5757091 640.468001,24.8768149 C647.956421,16.1501966 656.414505,8.25693681 664.447241,0 L670.965995,0 Z" id="Fill-1" fill="#000000"></path>
                <path d="M711.790242,411.772952 C705.560197,411.772952 700.124817,413.087227 695.738657,411.505863 C685.894271,407.958787 676.248961,403.542042 667.15192,398.372888 C661.142162,394.959357 658.740217,396.646579 655.863431,401.892278 C652.231142,408.515766 648.487893,415.29397 643.581202,420.959846 C632.372669,433.89739 625.524188,449.145907 618.930261,464.549141 C617.714603,467.387779 617.415992,471.859896 618.847042,474.341872 C622.443433,480.581012 626.997664,486.341346 631.669382,491.87042 C637.907586,499.251204 645.263543,505.759062 650.958372,513.506279 C657.738319,522.729002 663.31403,532.839309 669.327051,542.615753 C677.580474,556.033732 691.691901,562.549733 703.580877,571.673112 C708.412507,575.37979 713.500323,578.754235 719.459496,582.978805 C722.734431,576.042627 726.074636,570.453296 728.081696,564.422615 C733.231518,548.957495 736.927446,533.430488 746.797939,519.365958 C756.302919,505.81932 757.327662,488.606719 755.769335,471.757294 C754.459034,457.595049 743.195021,448.939076 736.893179,437.695269 C730.961745,427.111042 719.622672,419.546227 711.790242,411.772952 M1083.51083,704.261765 C1083.27259,704.115191 1084.671,704.597255 1085.49994,705.564639 C1087.82519,708.271361 1091.67124,711.248429 1091.56354,713.987723 C1091.47216,716.350812 1086.69438,718.44844 1084.13579,720.822928 C1081.5723,723.202303 1077.73604,725.409047 1076.99033,728.332371 C1074.0548,739.853039 1068.69448,744.142753 1056.28334,743.558089 C1052.54336,743.3822 1048.00218,742.46856 1045.1564,744.142753 C1033.32127,751.104989 1027.16139,741.945781 1020.37655,735.8467 C1014.93138,730.94952 1015.97081,726.625606 1022.48151,723.024786 C1033.97724,716.66513 1045.61329,710.561163 1057.18407,703.455611 C1038.47436,704.51094 1019.68468,693.338791 999.284468,705.328493 C1002.76664,725.182672 1005.73643,745.465171 1010.00184,765.472438 C1014.20851,785.214244 1019.7679,804.667789 1024.64522,824.267907 C1026.13175,830.233444 1022.20738,834.298412 1012.19003,836.853675 C1014.47285,847.716391 1009.92352,859.77938 1018.81169,869.705656 C1020.06651,871.106246 1020.54625,875.39596 1019.6341,876.106027 C1017.30232,877.920279 1014.03554,878.672689 1011.03964,879.465814 C1008.10574,880.244282 1004.58604,879.76059 1002.12046,881.197009 C991.39819,887.447549 975.310706,880.57 972.980558,868.388124 C962.920781,815.756879 953.84169,763.005119 952.874059,709.225717 C952.833265,706.849599 952.183826,704.484882 951.811785,702.071307 L884.389252,702.071307 C885.210025,716.819846 885.96716,730.443028 886.683501,743.334971 C897.250754,742.709592 907.445967,740.945825 917.406206,741.826894 C928.260648,742.787764 932.702289,749.32168 930.926938,758.726805 C930.44557,761.270667 928.462986,764.073476 926.34823,765.682526 C909.594989,778.429525 892.082982,790.246597 875.882907,803.646661 C852.726655,822.79403 830.546193,843.113987 807.835411,862.802049 C786.609526,881.203523 764.600399,898.749986 749.72531,923.314056 C745.3212,930.585724 737.310909,931.675253 729.889682,927.795944 C725.415406,925.457284 720.81059,923.359656 715.251197,920.664335 C715.822312,917.403891 716.579446,913.097891 717.330054,908.817948 C704.94013,902.075573 706.230849,889.151058 705.615677,878.25577 C704.378805,856.401678 705.372545,834.430328 705.044562,812.512722 C704.683944,788.500745 703.670623,764.498539 703.42586,740.484933 C703.378539,735.900444 706.128048,731.348526 706.606153,726.680978 C707.392659,718.997275 708.123686,711.176771 707.555835,703.512612 C706.061146,683.345743 703.616775,663.252161 702.099242,643.086921 C701.732097,638.212542 703.489498,633.17856 704.497924,626.770046 C672.291952,611.482442 649.181389,580.690632 616.776343,561.439033 C591.317683,546.314288 573.983538,521.183468 558.86858,495.489154 C557.243351,492.72706 556.122334,489.437302 553.894987,487.298959 C542.857788,476.703332 547.243949,465.920417 552.111478,454.279233 C566.208219,420.552698 588.094965,391.496968 607.279522,360.81753 C608.423383,358.986991 610.006187,357.330712 610.732318,355.3536 C613.633581,347.44678 619.762457,345.749786 627.390917,345.130921 C631.475203,344.798688 636.24809,342.829719 639.157511,340.007367 C649.073693,330.387267 659.905291,326.924878 672.86633,333.076075 C686.750943,339.666991 699.586338,348.422308 713.190289,355.650004 C726.066477,362.491724 738.849655,372.374027 752.558038,374.162222 C776.605229,377.300521 776.836939,397.835452 786.00904,411.782724 C793.493906,423.16659 800.670369,435.009719 805.882199,447.5222 C808.674133,454.223861 808.61539,463.093179 807.10112,470.420219 C801.974142,495.210664 795.864847,519.812192 789.546687,544.333919 C788.180907,549.631732 783.922024,554.115249 781.761579,559.290918 C770.167951,587.051917 746.21377,603.160332 723.966407,620.900597 C721.021087,623.249028 718.017024,625.525801 714.634393,628.152722 C715.489433,628.747158 716.018122,629.434425 716.541916,629.431167 C730.062648,629.326937 733.495863,638.048054 735.085193,649.371662 C736.871966,662.099117 738.347074,663.245647 751.308113,665.028956 C758.969208,666.084285 762.921322,669.59716 762.652082,677.66521 C761.596336,709.292489 760.664603,740.926282 759.770401,772.558447 C759.427732,784.667036 759.507688,796.791912 758.996948,808.890731 C758.765239,814.361175 761.252035,816.548376 766.153831,817.787735 C770.229958,818.817006 774.072744,820.755032 779.047968,822.693058 C803.475358,803.244398 828.775738,783.10033 851.918936,764.676056 C838.848569,765.50501 822.992794,766.843713 807.109279,767.395806 C797.091928,767.744325 782.187467,754.971269 782.200521,745.097109 C782.231524,720.287121 783.148571,695.467362 784.33649,670.680174 C784.589412,665.42959 788.092793,661.281563 794.766675,661.672426 C811.247413,662.638181 818.600106,668.299171 816.070884,683.581889 C815.587884,686.498699 815.48182,689.477396 815.005347,692.395835 C813.775003,699.929707 813.634672,706.862628 817.88866,714.113125 C821.31698,719.95326 822.139385,727.314501 824.332466,734.724599 C829.803744,733.760472 835.965255,733.27678 841.744936,731.527671 C852.077216,728.402401 854.196867,725.042613 852.651594,714.401386 C850.367135,698.659404 847.612731,682.985824 844.992131,667.292701 C844.097928,661.939515 842.144716,656.125437 848.017407,652.558819 C854.626019,648.547594 861.637675,649.840697 868.176122,653.149998 C875.21715,656.716617 876.664518,663.796111 878.434973,670.597116 C878.829858,672.113336 879.578835,673.535098 880.257645,675.232092 C890.271733,674.126277 899.582533,674.20445 908.702419,667.660763 C914.087214,663.79774 923.850011,665.73088 931.651438,665.608735 C937.514338,665.515906 943.391923,666.299259 949.470215,666.706407 C949.835728,664.721152 950.222455,663.691881 950.180029,662.682153 C949.238506,640.4714 948.254557,618.265533 947.259185,596.058037 C947.172702,594.165612 946.828402,592.278072 946.787608,590.385647 C946.573848,580.557087 948.832198,577.965996 958.5901,578.809607 C963.854146,579.263984 969.31237,580.698775 974.019987,583.03092 C976.576949,584.296337 979.073536,588.258704 979.311772,591.190172 C980.64818,607.632448 980.653076,624.200126 982.465957,640.577259 C983.23125,647.48738 986.644884,654.425186 990.280437,660.499839 C991.350869,662.288034 997.32636,661.556796 1001.01087,661.314135 C1022.10458,659.929831 1043.16729,657.690515 1064.27732,657.143308 C1072.84567,656.920191 1081.73058,659.524311 1090.0607,662.144718 C1098.30922,664.737438 1099.47267,674.538311 1092.10202,679.069058 C1087.77461,681.730179 1087.43194,684.578588 1087.13822,688.892731 C1086.80045,693.828997 1084.90761,698.659404 1083.51083,704.261765" id="Fill-3" fill="#000000"></path>
                <path d="M114.344148,593.240385 C113.754798,592.537186 113.16382,591.835615 112.574471,591.130789 C109.336302,593.237129 105.93533,595.130231 102.899038,597.492132 C97.3620799,601.802478 92.2939964,606.755796 86.5209723,610.698266 C83.9177389,612.474168 79.7499606,613.773132 76.8878691,613.0211 C68.3357835,610.776399 66.9763714,615.143718 67.1603398,621.858287 C67.7985308,645.065468 68.358576,668.274276 69.1579429,691.474945 C69.2344607,693.68709 70.1445341,696.916595 71.7334996,697.846054 C77.9119053,701.449947 78.8610516,707.008796 78.708016,713.189456 C78.5745169,718.582273 80.9709894,721.134623 86.4477105,721.204617 C100.305573,721.383672 103.273487,719.431971 107.068445,707.080418 C110.394527,696.255718 113.250106,694.354478 124.187268,696.203629 C131.039682,697.362605 137.042259,696.877528 142.181977,691.961649 C154.403661,680.275857 166.574876,668.536347 179.341953,656.262928 C155.626318,635.516943 125.02408,627.399231 104.781051,603.921841 C108.102249,600.212143 111.223199,596.727078 114.344148,593.240385 M188.582699,732.389055 C196.410307,737.052629 204.086508,741.424831 211.544552,746.143749 C215.819781,748.849111 219.865456,752.853436 217.070114,758.037897 C215.590228,760.780697 210.824959,761.752479 206.751607,763.951602 C210.372365,767.399228 214.466881,771.375881 218.646056,775.258123 C233.850306,789.379066 244.21277,807.055069 254.026586,824.919894 C258.752781,833.519426 260.548508,843.68325 264.766755,852.621359 C268.167727,859.827517 273.156037,866.29792 277.576161,873.005979 C278.600197,874.560503 280.044267,875.914812 281.517642,877.080298 C286.818535,881.271817 287.313459,887.621765 283.554318,891.336347 C280.949457,893.909858 273.703058,894.126352 269.730644,892.488811 C261.432532,889.068857 254.555698,883.086786 244.380458,883.627207 C238.628599,883.931601 232.578808,880.514902 226.854625,878.283223 C225.194026,877.635369 223.842754,875.465546 222.950589,873.691272 C218.629775,865.088484 214.147786,856.532901 210.460279,847.655019 C208.247774,842.325686 207.925423,836.224787 205.821997,830.836854 C199.920358,815.724596 186.632309,806.672542 174.682507,797.573283 C156.65361,783.847889 136.82573,772.622756 115.052345,765.003144 C106.347224,761.95595 102.155025,767.166456 97.5216276,771.257054 C95.0193326,773.465944 93.9041263,778.621105 94.1597284,782.308014 C94.8549008,792.341616 98.088185,802.40289 97.4027808,812.250925 C96.9892591,818.215091 93.254539,823.899279 95.1056187,830.700121 C97.4320855,839.257331 99.2668848,848.008246 100.455353,856.79009 C101.267744,862.790066 101.007258,869.019559 100.520474,875.087902 C99.7325038,884.929426 102.278756,893.636392 108.002939,901.532726 C112.359569,907.544097 111.275296,911.4182 104.157512,913.272235 C99.5355111,914.478416 97.8114185,915.681341 99.7813449,921.035091 C100.456981,922.871221 96.3201353,928.734464 93.8308646,929.112108 C77.0132281,931.657947 75.1898251,929.348135 65.9197745,913.980317 C49.782658,887.222961 43.4674971,857.411899 36.6850892,827.646416 C33.2385319,812.516252 29.2710024,797.449572 26.9070906,782.143609 C24.3526984,765.581004 23.7812569,748.723772 21.6355023,732.084662 C19.1039026,712.45533 16.0464466,692.886225 12.7610651,673.36921 C11.0776734,663.366536 10.4280861,652.408358 5.69700653,643.888587 C-1.30030245,631.292868 2.29603434,618.062317 0.0998105587,605.334749 C-0.821659168,599.994021 4.86345088,593.401534 7.84276113,587.528524 C13.5734562,576.225258 25.4711608,571.742368 35.2068303,566.09399 C52.5486952,556.032716 71.1490338,547.602473 91.5288183,544.76689 C93.931803,544.431568 96.4471223,543.728369 98.7605648,544.110896 C109.839366,545.940515 120.895375,547.950816 131.902542,550.180867 C136.929925,551.199854 142.009405,552.477657 143.101818,558.97736 C143.298811,560.150986 145.219896,561.632261 146.56954,561.922004 C159.344757,564.664804 166.954209,574.623528 175.603977,582.8796 C187.933111,594.641899 200.571573,605.442182 216.821025,611.860497 C232.497406,618.054178 237.171504,628.932595 236.419351,645.837033 C235.561374,665.119649 227.83796,682.295925 221.98679,700.066338 C221.377904,701.91549 217.377814,703.78092 215.018786,703.696275 C209.012952,703.484665 205.441036,706.139565 202.497543,710.946383 C198.147424,718.04999 193.444021,724.935476 188.582699,732.389055" id="Fill-5" fill="#000000"></path>
                <path d="M1396.14265,646.13475 C1398.10791,633.677964 1399.48164,622.244444 1401.88526,611.030893 C1402.91026,606.248596 1406.25252,601.999113 1408.22756,597.371609 C1409.11731,595.285973 1409.61921,592.876086 1409.64855,590.606328 C1409.97283,566.500941 1409.25582,542.341784 1410.63933,518.301573 C1412.15809,491.915022 1415.45471,465.621348 1418.41728,439.339079 C1418.65194,437.256702 1422.70469,433.696456 1424.35381,434.020707 C1430.60486,435.250907 1437.76683,436.407783 1442.34756,440.256432 C1446.60726,443.839489 1449.46716,450.585217 1450.37646,456.343527 C1452.34173,468.767725 1454.9849,481.827389 1453.04245,493.935482 C1450.82297,507.785407 1452.70512,521.180728 1452.52424,534.73736 C1452.00115,573.500856 1453.58183,612.334416 1451.8056,651.024588 C1449.9153,692.235446 1456.19893,732.866237 1457.14245,773.826168 C1457.85458,804.838594 1459.26416,835.836355 1459.95835,866.84878 C1460.19464,877.368206 1459.37823,887.928366 1458.70032,898.446162 C1457.94257,910.197416 1446.74089,914.847732 1436.18614,910.252815 C1424.17782,905.025691 1421.57702,895.303044 1418.51505,884.535949 C1410.39652,855.985551 1401.58379,827.630682 1393.21104,799.147089 C1390.8612,791.153239 1388.05833,783.084435 1387.30547,774.882021 C1386.41409,765.172409 1381.15546,763.596776 1372.77131,764.26972 C1372.98478,773.319424 1369.86252,780.029305 1361.56636,780.835859 C1357.7939,792.921141 1353.4022,803.887022 1351.15665,815.276549 C1349.67374,822.791355 1351.03769,830.931852 1351.5559,838.764392 C1352.29898,850.038231 1350.24735,854.844969 1342.64539,858.014158 C1337.12766,860.313245 1323.16548,856.661753 1319.90144,850.85782 C1317.76181,847.053164 1318.01928,841.900992 1317.00569,836.26 C1315.81284,836.017218 1313.08494,835.924343 1310.78235,834.886413 C1307.24129,833.287969 1303.79148,832.043105 1304.00985,826.35323 C1304.98596,801.00135 1305.1978,775.620141 1306.01911,750.258484 C1306.10059,747.749204 1308.54006,745.35724 1309.71172,742.828407 C1310.70413,740.679224 1312.19356,738.411096 1312.18215,736.203255 C1312.05994,716.510291 1312.10393,696.801033 1311.22885,677.132511 C1309.81601,645.337972 1319.98129,615.712168 1327.24104,585.503038 C1328.66692,579.573641 1329.02216,573.390056 1329.94613,567.336825 C1330.86032,561.356916 1333.64852,559.259874 1340.39332,559.16211 C1355.70642,558.940511 1362.03731,567.398742 1368.29161,580.000544 C1375.11463,593.751075 1377.04242,608.581901 1382.34342,622.470931 C1385.31902,630.267624 1390.77157,637.120893 1396.14265,646.13475" id="Fill-7" fill="#000000"></path>
                <path d="M1132.92603,546.738984 C1136.4824,541.793279 1139.75667,536.615949 1143.64079,531.94265 C1161.78624,510.115977 1179.70993,488.085407 1198.47828,466.803545 C1212.61569,450.772415 1227.18848,434.981068 1242.8554,420.475081 C1269.26969,396.018964 1296.80584,372.778067 1323.67181,348.801513 C1336.53735,337.318083 1351.57159,341.914718 1361.10741,349.984111 C1372.21841,359.389432 1369.30287,371.98695 1356.61508,379.067855 C1347.52767,384.137528 1339.56213,391.513675 1331.81998,398.646777 C1292.72279,434.661359 1256.90802,473.739276 1222.61461,514.360278 C1194.64797,547.487691 1165.39316,579.551581 1136.0405,611.468665 C1130.21922,617.800864 1121.68622,621.992968 1113.80221,625.981177 C1104.45228,630.708304 1088.50326,618.030859 1088.73644,607.588114 C1089.05114,593.610627 1088.17388,579.60704 1087.86569,565.614872 C1087.79557,562.406363 1087.14822,558.899349 1088.17388,556.033385 C1092.76079,543.209134 1090.01484,530.57573 1088.25378,517.79552 C1086.96396,508.427717 1086.46173,498.950624 1085.6399,489.519205 C1085.18985,484.359817 1084.73491,479.885521 1079.04734,476.686798 C1076.14485,475.055629 1074.56804,469.472137 1074.04462,465.459461 C1070.56489,438.855094 1067.63794,412.178956 1064.29029,385.556646 C1063.35106,378.082629 1061.18561,370.757049 1060.30834,363.27977 C1056.82861,333.589231 1053.92123,303.830183 1050.21485,274.169005 C1048.37226,259.397138 1045.12571,244.804699 1042.75317,230.093186 C1039.70881,211.20751 1036.8422,192.292474 1034.09624,173.362757 C1033.81089,171.39883 1034.13538,168.392585 1035.40237,167.316014 C1042.6113,161.19913 1039.01743,153.7349 1038.86579,146.530026 C1038.74349,140.768737 1039.96645,134.991137 1040.34801,129.20538 C1040.62848,124.951291 1039.9159,120.547135 1040.77034,116.443113 C1041.44052,113.231341 1043.12331,108.699954 1045.58554,107.651112 C1057.48412,102.592857 1071.44542,109.667237 1075.83014,121.915685 C1076.52315,123.853514 1078.16355,126.482959 1079.81536,126.866284 C1086.42586,128.401214 1088.2391,133.115292 1088.88645,138.821121 C1092.05962,166.803827 1095.16431,194.794687 1098.31628,222.780655 C1099.14137,230.107866 1098.51033,237.916272 1107.37923,241.790299 C1109.24302,242.604252 1110.28987,246.822455 1110.52957,249.574238 C1112.26291,269.479394 1112.07539,289.697734 1115.55023,309.275025 C1123.04126,351.492942 1123.20595,394.196948 1126.32858,436.697058 C1128.25433,462.89037 1129.28161,489.153823 1130.41326,515.399333 C1130.85516,525.665911 1130.48664,535.968375 1130.48664,546.254527 C1131.29868,546.416013 1132.11236,546.577498 1132.92603,546.738984" id="Fill-9" fill="#000000"></path>
                <path d="M1212.54442,310.643537 C1220.02407,313.058573 1226.03186,316.994007 1231.51596,316.361731 C1243.44859,314.984736 1249.34742,303.054586 1258.99664,297.196249 C1260.43597,296.322794 1260.8637,291.872413 1260.10582,289.63989 C1258.23062,284.115616 1260.70757,280.597355 1263.79441,276.555998 C1274.77074,262.17985 1285.91459,247.914513 1290.47167,229.725149 C1291.31087,226.377993 1295.14584,223.736445 1297.74314,220.904237 C1299.34348,219.157328 1301.63666,217.938402 1302.89871,216.008981 C1308.22018,207.865973 1313.95474,199.884294 1318.25159,191.205155 C1323.59745,180.412451 1330.38427,169.298721 1331.69675,157.769447 C1333.9021,138.379084 1332.52782,118.545475 1332.16839,98.9074149 C1331.97973,88.5661049 1316.33899,77.9249524 1307.0801,81.9597906 C1281.11031,93.2788481 1255.28365,104.941747 1229.58059,116.855601 C1223.53864,119.655218 1220.00293,123.478211 1222.475,132.211126 C1225.75375,143.790916 1223.04748,155.66729 1217.07385,166.605026 C1215.22467,169.986403 1214.2765,174.427007 1214.50907,178.28585 C1215.54344,195.512133 1217.77969,212.686268 1218.23995,229.91418 C1218.4156,236.535161 1213.97399,243.177326 1213.50398,249.94008 C1212.85668,259.284087 1214.33993,268.755202 1214.24072,278.164393 C1214.13338,288.510591 1223.1597,298.825828 1212.54442,310.643537 M1172.79608,350.651337 C1172.79608,340.124255 1172.90179,329.592285 1172.69524,319.068462 C1172.65946,317.222148 1171.18923,315.437759 1170.60211,313.557225 C1170.03939,311.759799 1169.22783,309.801044 1169.46528,308.039469 C1170.12396,303.139324 1172.23173,298.271771 1172.07397,293.446587 C1170.69319,251.25678 1169.41975,209.052307 1167.11031,166.906498 C1165.81572,143.253155 1162.69798,119.697587 1160.25844,96.1126865 C1159.01427,84.096169 1162.05557,80.2780648 1173.91339,82.3394826 C1180.52456,83.4883359 1182.66648,78.4610839 1186.93894,76.3898887 C1200.51095,69.8096476 1213.95448,62.6883863 1228.11523,57.6627638 C1262.27376,45.5386941 1297.59026,41.3963037 1333.35889,48.4197903 C1370.23345,55.6600109 1389.99215,75.2573311 1390.93219,115.067952 C1392.04462,162.299678 1379.48096,205.507972 1352.46867,244.088261 C1336.40182,267.037626 1318.85497,288.945689 1302.0156,311.352404 C1300.43152,313.46108 1297.52195,316.250919 1297.9936,317.955459 C1301.3065,329.932867 1293.01367,335.877572 1285.33398,340.49254 C1270.83006,349.210789 1255.65771,356.962698 1240.23002,363.935668 C1230.30432,368.421899 1219.33774,370.553389 1209.07051,374.371493 C1207.37258,375.00377 1205.47949,379.338451 1206.07474,381.184764 C1208.39557,388.363061 1206.08775,394.685828 1200.31579,397.143234 C1195.95713,398.999324 1189.29717,397.539221 1184.42621,395.614688 C1175.94472,392.262644 1171.7243,385.933358 1173.18478,375.77619 C1174.36389,367.561481 1173.42223,359.040411 1173.42223,350.654597 C1173.21243,350.652967 1173.00425,350.652967 1172.79608,350.651337" id="Fill-11" fill="#000000"></path>
                <path d="M557.838497,841.869174 C561.349785,840.142703 563.557998,838.687975 565.984749,837.924813 C579.287847,833.751015 592.43275,828.016721 606.065286,826.34232 C613.968537,825.370875 619.598339,823.029317 623.680434,817.558632 C628.745951,810.771532 632.927531,803.19198 636.575812,795.522931 C640.695418,786.862911 637.179238,774.998911 629.947911,768.574679 C626.987861,765.943478 624.844883,762.384766 621.834277,759.830043 C619.071564,757.485231 615.860359,755.25107 612.461602,754.155956 C606.199018,752.136587 599.344425,751.759074 593.28407,749.334528 C576.050548,742.441659 564.211981,749.435415 563.554736,767.58208 C563.398171,771.902327 562.943156,776.321834 563.619971,780.537939 C564.874119,788.359946 566.617531,795.934616 558.720804,801.657519 C557.799356,802.324676 557.882531,804.677624 557.872746,806.247884 C557.807511,817.519579 557.838497,828.791274 557.838497,841.869174 M550.024945,597.832985 C550.775151,604.813724 551.978741,610.875087 551.879257,616.915297 C551.814022,620.929628 551.058924,625.930049 548.601186,628.740244 C534.575607,644.786178 527.861269,663.953105 523.536172,684.203754 C521.376886,694.318502 519.754159,704.556917 518.186882,714.783943 C517.676416,718.111591 518.106969,721.58406 518.106969,725.806675 C527.163252,722.204028 535.30135,719.44265 543.025203,715.805832 C565.979856,705.002773 589.513473,702.31462 614.058235,709.414144 C618.724186,710.763103 623.649447,711.195941 628.377372,712.361025 C639.832682,715.184237 649.898481,720.121197 658.436144,728.817016 C667.074922,737.620231 676.884672,745.312061 686.443267,753.171493 C693.376143,758.871616 692.617784,766.296583 690.57592,773.143889 C686.444898,787.004478 681.273374,800.562406 676.375838,814.190304 C675.504947,816.613222 674.250799,819.09472 672.54979,820.992048 C662.792228,831.878095 653.262989,842.585147 651.873478,858.349574 C651.154259,866.514922 646.452429,868.202341 638.541024,865.893327 C635.22055,864.923509 631.446691,865.289632 627.889739,865.401909 C624.954152,865.496288 621.514624,867.302493 619.203665,866.291994 C609.742923,862.149113 602.144648,867.086073 594.831776,871.111795 C586.073944,875.934851 577.536281,875.731449 568.450641,873.415927 C565.590076,872.685309 562.520757,871.660165 559.710749,872.026288 C535.880312,875.134262 523.454628,860.381961 513.388829,842.467988 C508.660905,834.055304 505.050134,824.999871 501.290953,816.084378 C500.729929,814.754946 501.775324,812.371081 502.726128,810.890318 C503.709549,809.359112 505.707379,808.511335 506.876721,807.054981 C511.68782,801.066842 517.174105,796.679879 514.633192,786.301523 C512.278199,776.676566 515.874292,765.557828 517.084406,755.12252 C517.940619,747.74637 519.188243,740.414154 520.261363,733.062411 C519.434506,732.865519 518.604388,732.670253 517.777531,732.473361 C516.746814,736.321716 516.030857,740.287231 514.625037,743.994019 C511.128428,753.218682 506.731572,762.139057 503.769892,771.521559 C499.496983,785.05996 495.595915,798.7741 492.596725,812.639571 C489.069129,828.958877 486.650532,845.517383 483.799751,861.979883 C482.773927,867.899679 479.565984,872.276879 473.658932,873.220661 C467.476261,874.205125 462.081306,871.928655 458.064446,866.679271 C448.460186,854.128587 446.80158,838.86046 444.082901,824.220436 C436.51235,783.470175 426.837963,743.32849 412.032823,704.556917 C410.470439,700.46448 406.538384,697.325589 404.101848,693.493505 C400.009967,687.05951 396.157825,680.47093 392.367657,673.85306 C390.772655,671.070528 389.80065,667.931637 388.181185,665.167004 C382.000145,654.61291 384.921053,652.678155 396.118684,649.007165 C395.360324,646.423153 394.70471,643.74639 393.788155,641.164005 C391.671271,635.203529 394.011585,631.119227 400.287216,630.051777 C414.676481,627.597941 421.255456,631.548811 425.769736,645.394755 C427.527825,650.78408 429.157076,656.215713 430.9592,661.590393 C434.372634,671.775111 437.523497,673.989746 449.02284,674.508827 C460.977199,675.050688 460.936427,675.058824 463.019063,687.225486 C465.240323,700.200872 467.49257,713.171376 469.88018,726.117472 C470.237343,728.050599 471.41647,729.830769 472.215602,731.682536 C473.013103,731.698808 473.812235,731.71508 474.609736,731.729725 C478.660845,714.901102 482.592899,698.041562 486.808727,681.253619 C489.272989,671.441533 492.303166,661.771014 494.86528,651.983335 C496.967486,643.943283 498.949007,635.860922 500.625553,627.724864 C502.442355,618.920022 506.046602,611.651267 514.897395,607.944479 C516.33257,607.344038 518.095553,606.310758 518.656576,605.022007 C524.881649,590.686272 535.810185,593.158006 547.141547,596.859913 C548.157586,597.191864 549.170364,597.544969 550.024945,597.832985" id="Fill-13" fill="#000000"></path>
                <path d="M888.567362,414.022098 C901.367773,399.248796 913.274944,385.643654 925.025633,371.901465 C936.817073,358.111962 948.231983,343.996158 960.232063,330.392647 C967.319315,322.359104 981.136849,322.065432 989.004872,329.297906 C1003.36846,342.501697 1018.4199,354.201239 1035.91309,363.626458 C1046.65644,369.415047 1058.88472,378.26924 1059,394.558212 C1059.06402,403.795808 1056.44298,407.93168 1046.97592,409.494665 C1045.27257,409.775284 1043.58551,411.760829 1042.40865,413.343391 C1038.5048,418.600109 1033.87722,420.404556 1027.82176,417.192118 C1021.4077,413.790424 1015.01972,410.343049 1008.55512,407.04414 C1004.00579,404.720873 999.55425,401.777633 994.696841,400.573581 C983.379732,397.770651 974.735828,399.227587 966.070733,410.228843 C946.82366,434.663933 925.286434,457.333732 904.042608,480.125894 C897.462287,487.187059 894.481012,494.370587 896.220225,503.544555 C897.296026,509.225465 897.147696,514.183616 892.412538,518.436957 C891.064526,519.649167 890.334285,522.347681 890.467945,524.28428 C891.537227,539.75913 892.811889,555.219297 894.169681,570.672937 C895.276453,583.286123 896.505475,595.887888 897.856747,608.47497 C898.230018,611.938661 899.54217,615.306092 899.851871,618.768152 C900.146901,622.083375 900.541362,625.788529 899.40525,628.752979 C896.940686,635.184382 888.766222,638.01831 887.977301,646.099168 C887.895801,646.931237 881.37416,647.231434 877.824013,647.614839 C864.730201,649.026093 862.648688,647.034022 862.035807,633.582241 C861.753816,627.40209 861.013795,621.234991 860.250954,615.092365 C860.081433,613.725161 859.256652,611.746143 858.20204,611.29911 C851.618459,608.497811 851.686919,602.619489 851.461979,597.067468 C850.580147,575.31784 851.724409,553.281066 848.480704,531.905053 C846.39104,518.138391 848.826264,504.810605 847.206042,491.309879 C845.704809,478.792952 843.830306,465.788205 845.624939,453.512741 C849.890656,424.338121 841.010401,396.454024 840.11553,368.028266 C839.649349,353.209282 838.619187,338.387035 838.003046,323.559893 C837.952516,322.341157 838.539317,320.10436 839.119598,320.004838 C844.485567,319.069984 850.069956,317.433582 855.269665,318.197128 C858.839371,318.722473 864.523191,322.499413 864.762801,325.219137 C866.397694,343.802009 875.55668,359.994722 880.117427,377.572586 C883.090552,389.027401 885.486656,400.630683 888.567362,414.022098" id="Fill-15" fill="#000000"></path>
                <path d="M1164.82631,750.402684 C1163.84169,750.684015 1162.8587,750.966974 1161.87408,751.248305 C1162.87013,753.676216 1163.81067,756.128519 1164.87203,758.525531 C1166.32529,761.805568 1168.78929,764.9425 1169.15995,768.324987 C1169.74288,773.610123 1167.53851,779.482316 1169.05381,784.316995 C1171.13082,790.943743 1174.92398,797.388357 1179.42907,802.684876 C1180.74026,804.22651 1187.36809,802.354758 1190.93591,800.710675 C1201.55936,795.814199 1211.92319,793.784707 1223.58841,797.612772 C1233.00681,800.705796 1234.15962,798.90885 1235.24874,788.59389 C1237.27677,769.386893 1239.59381,750.205914 1242.02679,731.04445 C1242.64074,726.221153 1232.28671,703.607275 1227.91389,701.491595 C1227.42729,701.255796 1226.9162,701.02325 1226.39042,700.922426 C1216.90671,699.117349 1207.41483,697.331786 1198.86676,695.7186 C1197.28124,699.187276 1195.33976,701.826591 1194.88582,704.700079 C1192.62429,718.982956 1190.62566,733.308114 1188.79521,747.652787 C1187.47422,757.995391 1180.77292,761.283559 1172.02237,755.531705 C1169.56163,753.915266 1167.22173,752.11832 1164.82631,750.402684 M1227.14807,833.889946 C1225.81728,840.3557 1225.10535,845.944935 1223.47575,851.254464 C1220.56924,860.730306 1217.11245,862.779313 1207.82468,859.617988 C1192.25853,854.321469 1176.92588,848.346826 1161.50179,842.642131 C1160.74087,842.360799 1159.89831,842.081094 1159.32191,841.554206 C1145.40822,828.842234 1129.79308,817.72556 1120.1967,800.951352 C1119.039,798.926738 1118.70262,795.820704 1119.26923,793.53102 C1124.17437,773.680049 1129.59713,753.957547 1134.34226,734.0708 C1135.5914,728.832824 1134.04997,722.903714 1135.46404,717.745421 C1140.43613,699.58732 1146.15607,681.632493 1151.53638,663.58172 C1152.38057,660.75214 1153.22967,657.867268 1153.55297,654.949873 C1154.54903,645.924487 1156.32559,644.264141 1165.20024,645.251242 C1177.98071,646.674163 1189.63288,650.77055 1199.75341,659.075532 C1201.9039,660.838328 1205.50111,661.204222 1208.50559,661.518078 C1217.32472,662.430374 1226.22387,662.671051 1235.00871,663.794752 C1242.2064,664.716805 1249.618,665.671382 1256.3095,668.231014 C1261.15749,670.083251 1265.74586,673.966606 1269.08834,678.049983 C1273.96899,684.013243 1278.73371,690.535914 1281.52592,697.609866 C1284.90922,706.1913 1286.99277,715.486635 1288.21089,724.661632 C1291.16638,746.91612 1285.42848,767.910307 1277.51396,788.510954 C1276.14071,792.085332 1275.85496,796.308563 1276.01335,800.191918 C1276.67303,816.432735 1270.40934,830.013095 1258.83555,840.617518 C1256.11682,843.108849 1248.83585,841.671292 1243.98623,840.580115 C1238.51448,839.347459 1233.41666,836.467466 1227.14807,833.889946" id="Fill-17" fill="#000000"></path>
                <path d="M353.373324,733.100556 C351.472985,720.83411 350.09418,710.690452 348.249254,700.633338 C347.528885,696.694751 346.30654,692.645126 344.373605,689.168653 C338.550353,678.704944 328.135973,678.706577 318.124151,678.874767 C305.869734,679.078881 295.113097,688.619994 281.934587,684.960635 C280.682906,684.612825 276.62961,689.042919 276.363953,691.521681 C275.663142,698.064765 276.631239,704.764609 276.375362,711.382807 C276.096667,718.639475 279.379071,720.86187 286.238872,720.476502 C304.050885,719.47226 321.173495,722.579695 337.691452,729.534273 C342.20598,731.434984 347.369165,731.787694 353.373324,733.100556 M246.336638,757.05213 C245.679832,751.679845 244.620466,742.951923 243.531764,734.225633 C243.466572,733.704734 242.860289,733.041771 243.029788,732.728252 C251.29447,717.502967 241.488003,702.068669 243.667037,686.859714 C244.297767,682.449214 245.837922,677.122651 248.884006,674.299343 C259.365207,664.588407 269.900192,654.514964 281.924809,647.010094 C294.671423,639.05454 307.942831,641.054859 321.197942,649.616224 C329.444697,654.944421 340.000869,656.965967 349.764962,659.554135 C356.497638,661.33891 362.726709,662.063923 367.180935,669.046261 C369.772306,673.10895 376.553877,674.24709 380.664216,677.653348 C383.619031,680.104351 386.678154,683.895976 387.269769,687.488385 C389.885587,703.366835 391.301878,719.437969 393.782424,735.340913 C395.713729,747.708599 392.273235,752.793492 380.214393,754.686038 C348.772417,759.620703 317.718333,758.103726 286.936424,750.042033 C285.093127,749.55869 282.953208,750.210223 280.951822,750.334324 C281.370679,752.298719 281.393496,754.460696 282.265435,756.198116 C293.439299,778.475954 306.418975,799.27274 326.268229,815.249165 C340.923332,827.043698 340.46862,827.522142 355.333966,814.783784 C362.394231,808.732207 369.594659,803.782846 379.950366,804.233531 C385.027173,804.452341 390.900949,801.584945 395.314429,798.521599 C404.095757,792.430832 413.341575,793.335466 422.603691,795.345583 C424.913109,795.84852 428.011346,799.911209 427.999969,802.324655 C427.97875,806.209356 426.852563,811.591438 424.142216,813.715859 C406.499702,827.546636 388.793626,841.418235 370.077078,853.699377 C360.850817,859.75422 349.551459,862.820831 338.913797,866.421405 C335.73407,867.495862 330.657263,867.076204 328.109896,865.142834 C318.930899,858.18499 310.011039,850.740538 301.827846,842.634756 C289.591357,830.513639 278.109462,817.629952 266.200561,805.170823 C262.479743,801.277957 258.525864,797.590839 254.490495,794.022923 C244.105451,784.839418 243.694743,773.004061 246.336638,757.05213" id="Fill-19" fill="#000000"></path>
                <g id="Group-23" transform="translate(1604.000000, 953.000000)">
                    <mask id="mask-2" fill="white">
                        <use xlink:href="#path-1"></use>
                    </mask>
                    <g id="Clip-22"></g>
                    <path d="M90.8821282,62.950238 C106.548536,55.424162 103.232575,37.5754532 90.8821282,25.9339342 L90.8821282,62.950238 Z M29.4185942,76.2833013 C30.2112932,76.4339848 31.0023612,76.5862886 31.7934291,76.7369722 C42.1213515,64.262643 46.1093126,49.8553519 41.9827107,33.9930734 C40.0205359,26.4588962 33.0770796,23.2070481 24.1893903,21.8703392 C25.9721476,40.4206177 27.6961864,58.3519595 29.4185942,76.2833013 L29.4185942,76.2833013 Z M66.2709437,34.6249722 C66.590633,30.5937823 66.8956427,25.6552506 67.3980117,20.7377823 C68.8007301,6.96076962 82.4495068,-1.35112911 95.8519922,3.43185823 C97.8598369,4.14801013 99.9166136,5.06669367 101.573779,6.36775696 C116.706827,18.2458329 123.718788,34.8744911 125.077468,52.9937823 C126.030012,65.7160101 115.30574,74.4815797 105.108303,79.2775291 C94.1214291,84.4445165 91.0044583,90.8250734 93.0335068,101.674289 C93.6663612,105.055757 93.7625942,108.814744 92.9209631,112.100618 C92.2832155,114.589327 90.1024777,117.965934 87.9984,118.477934 C85.4213126,119.104972 80.5427883,118.019403 79.5723029,116.169073 C76.2775456,109.87601 73.1703612,103.100111 72.0025165,96.1751494 C69.999565,84.3051747 69.5444971,72.1775797 68.3538175,60.166643 C68.2363806,58.9789975 67.5317592,57.8480608 66.6672932,55.532719 C58.5184777,74.1024405 52.9956816,93.2133266 32.0902835,102.594592 C33.0803417,106.768365 34.7342447,111.570795 35.2056233,116.485023 C35.5285748,119.850289 34.2106718,123.372719 33.6251184,126.825478 C29.3598757,125.995909 23.2205359,126.618086 21.2029049,124.048365 C16.3700505,117.886542 11.6089631,110.5792 10.1768854,103.096871 C6.85766214,85.8071494 5.38970097,68.1561114 3.45036117,50.6201114 C2.17975922,39.1098329 1.56321553,27.5315038 0.312186408,16.0196051 C-0.19344466,11.3775797 1.30713786,8.4870481 5.43373981,6.43094684 C7.12678835,5.59003544 8.18861359,3.34112405 9.90123495,2.72380759 C13.047565,1.58638987 17.125235,-0.343331646 19.6501282,0.738997468 C30.2700117,5.2870481 41.1443417,9.84644051 50.5653903,16.3436557 C56.9624388,20.7572253 61.1004583,28.3999595 66.2709437,34.6249722 L66.2709437,34.6249722 Z" id="Fill-21" fill="#000000" mask="url(#mask-2)"></path>
                </g>
                <path d="M1328.15556,1021.87023 C1333.87731,1020.76533 1338.55203,1019.8622 1344.83264,1018.6499 C1342.61363,1002.20651 1340.89596,986.200844 1338.10494,970.380688 C1336.95105,963.845639 1338.98925,961.958025 1344.86223,962.062169 C1352.43645,962.195604 1359.64247,967.936553 1361.15304,974.976051 C1368.24729,1008.02394 1367.83637,1041.40866 1365.39381,1074.83733 C1365.06672,1079.30902 1362.90688,1083.65379 1361.55082,1088.04412 C1359.58001,1094.43108 1354.7886,1094.13818 1351.94498,1090.10259 C1348.85973,1085.72365 1347.08124,1079.90785 1346.40896,1074.51676 C1345.17453,1064.60191 1345.18933,1054.53572 1344.63211,1044.53787 C1344.5302,1042.71047 1344.18502,1040.89283 1343.88587,1038.55609 C1340.55407,1039.12888 1337.27486,1038.98731 1334.8356,1040.33468 C1332.85986,1041.42656 1330.53565,1044.41583 1330.69509,1046.38155 C1332.06266,1063.32126 1334.1699,1080.20075 1335.59499,1097.13721 C1336.19988,1104.29224 1335.6969,1111.54002 1335.6969,1118.46399 C1327.00825,1120.25234 1322.00973,1117.62921 1320.3315,1109.63777 C1317.12626,1094.35786 1314.23169,1078.9673 1312.25431,1063.49049 C1309.21837,1039.73097 1306.97142,1015.8673 1304.58804,992.028038 C1303.70373,983.182289 1303.13172,974.286095 1303,965.404547 C1302.97392,963.647114 1305.31785,960.708294 1307.0684,960.272191 C1314.05253,958.529402 1322.70009,965.453365 1323.3625,972.544934 C1324.86485,988.605924 1326.47569,1004.65715 1328.15556,1021.87023" id="Fill-24" fill="#000000"></path>
                <path d="M1070.82317,894.530999 C1069.53699,884.41046 1068.34513,874.280171 1066.94676,864.175882 C1063.1419,836.677526 1059.26224,809.192171 1055.37933,781.70519 C1055.04112,779.311555 1054.05901,776.943921 1054.09153,774.574662 C1054.14681,770.567397 1053.38421,764.379373 1055.47364,763.054993 C1059.00045,760.815734 1064.64596,760.661359 1069.11423,761.389361 C1082.01499,763.490495 1086.21172,772.931781 1088.42635,784.714701 C1089.86212,792.352231 1093.99218,799.451883 1096.4816,806.936662 C1098.91574,814.25244 1101.13687,821.672219 1102.84743,829.184623 C1105.0523,838.864785 1106.30595,848.767573 1108.64416,858.41036 C1110.14821,864.611384 1106.61815,867.814271 1103.04418,871.499785 C1101.54662,873.046791 1099.32875,875.342925 1099.60191,876.925681 C1101.01329,885.081588 1102.27833,893.442245 1105.23929,901.094399 C1108.07343,908.421553 1104.37751,913.106446 1100.63768,917.653213 C1096.73201,922.401481 1091.86699,923.577986 1085.76295,919.586971 C1076.47193,913.515947 1071.41504,905.472166 1070.82317,894.530999" id="Fill-26" fill="#000000"></path>
                <path d="M1562.14068,1016.07634 C1559.77412,1028.94708 1557.41404,1041.95508 1554.98263,1054.94673 C1553.07641,1065.12797 1549.901,1067.99721 1542.17725,1066.71292 C1536.5283,1065.77339 1532.92658,1059.10681 1534.28816,1051.02195 C1536.48615,1037.98454 1538.72466,1024.93733 1541.5386,1012.02574 C1546.19231,990.687792 1551.31608,969.454417 1556.24696,948.176925 C1556.49334,947.118116 1556.66516,946.02336 1557.06067,945.023373 C1558.57625,941.186823 1554.02304,934.204891 1562.56536,934.003913 C1570.83051,933.807837 1579.78455,941.015257 1581.2596,947.781506 C1585.66368,967.985483 1590.41302,988.114298 1595.23044,1008.22187 C1598.67816,1022.61383 1602.67701,1036.87508 1605.86863,1051.31933 C1606.4392,1053.901 1605.08247,1058.33558 1603.12925,1059.62804 C1601.484,1060.71626 1596.39913,1059.41399 1595.05375,1057.54637 C1590.06938,1050.63307 1584.68302,1043.51551 1581.92581,1035.59569 C1578.46025,1025.64811 1574.80828,1017.28874 1562.14068,1016.07634" id="Fill-28" fill="#000000"></path>
                <path d="M1399.41027,992.755541 C1402.22176,998.97759 1404.35785,1005.49538 1408.0742,1010.88771 C1409.26989,1012.62108 1414.64566,1011.62213 1418.08894,1011.45126 C1424.6297,1011.1243 1431.20925,1009.81319 1437.66761,1010.31595 C1440.2949,1010.51804 1442.64589,1014.38238 1445.12292,1016.58236 C1442.54733,1019.11587 1440.38054,1022.81426 1437.3089,1023.92822 C1431.58896,1025.9984 1425.35197,1026.61781 1419.30887,1027.72684 C1416.98696,1028.15402 1414.60688,1028.26739 1411.776,1028.57627 C1412.25589,1033.90946 1412.39324,1038.74646 1413.28839,1043.43558 C1413.56792,1044.90278 1415.82197,1046.97625 1417.27619,1047.06662 C1433.26778,1048.05406 1449.30623,1048.36459 1465.27035,1049.6527 C1470.19693,1050.04867 1474.93285,1052.86149 1480,1054.654 C1471.61722,1069.83534 1440.21088,1072.14869 1413.63094,1060.56059 C1413.40634,1063.41942 1413.4015,1065.97429 1412.97492,1068.45358 C1412.01998,1073.98228 1410.36056,1078.90635 1403.67922,1079.80508 C1397.24509,1080.67258 1392.38314,1078.73548 1390.54598,1072.1569 C1389.47309,1068.31556 1388.71366,1064.07333 1389.14023,1060.16134 C1391.64149,1037.14781 1386.18654,1015.27288 1380.37774,993.447245 C1378.57127,986.660004 1375.82764,980.125785 1374.12943,973.317184 C1373.63176,971.32258 1374.62871,968.094081 1376.10233,966.712316 C1377.22854,965.657508 1380.63303,965.844811 1382.25853,966.810896 C1395.4564,974.659517 1408.84009,978.942823 1423.70062,971.393229 C1430.29955,968.039861 1435.7755,971.813837 1440.24643,975.949273 C1441.34033,976.95972 1440.01537,982.831809 1438.1168,984.66047 C1429.15395,993.294446 1417.7884,993.310876 1406.36468,992.313574 C1404.76988,992.173919 1403.19609,991.812458 1401.60453,991.602154 C1401.38962,991.57258 1401.13433,991.832174 1399.41027,992.755541" id="Fill-30" fill="#000000"></path>
                <path d="M1272.00239,974.204875 C1275.48561,986.439082 1263.92035,979.769757 1259.21922,983.325965 C1264.93203,1014.76402 1268.51755,1046.92415 1271.10439,1079.14172 C1266.5965,1079.54706 1264.05026,1079.77681 1261.58359,1080 C1258.69308,1059.64083 1255.76036,1039.4146 1252.97054,1019.17031 C1251.45059,1008.13736 1249.94038,997.091294 1248.8946,986.00748 C1248.4594,981.419036 1246.91834,979.14779 1242.23995,978.538951 C1230.33042,976.984854 1218.47611,975.009001 1206.58282,973.323618 C1201.56666,972.611392 1197.60764,968.431576 1196,961.414343 C1206.77281,955.664019 1217.85416,957.687464 1228.8056,960.536368 C1234.4908,962.014976 1239.18543,961.839381 1244.74559,958.908423 C1260.52482,950.589818 1282.57709,956.054595 1294.1521,970.517381 C1295.59898,972.327486 1296.40117,975.660507 1295.79709,977.795545 C1295.41873,979.13302 1291.58312,980.646091 1289.76763,980.184949 C1283.71056,978.64398 1277.8646,976.248012 1272.00239,974.204875" id="Fill-32" fill="#000000"></path>
            </g>
        </g>
    </g>
</svg>